<?xml version="1.0" encoding="UTF-8" standalone="no"?>
<svg
   xmlns:dc="http://purl.org/dc/elements/1.1/"
   xmlns:cc="http://creativecommons.org/ns#"
   xmlns:rdf="http://www.w3.org/1999/02/22-rdf-syntax-ns#"
   xmlns:svg="http://www.w3.org/2000/svg"
   xmlns="http://www.w3.org/2000/svg"
   xmlns:sodipodi="http://sodipodi.sourceforge.net/DTD/sodipodi-0.dtd"
   xmlns:inkscape="http://www.inkscape.org/namespaces/inkscape"
   width="13.481489mm"
   height="6.7881079mm"
   viewBox="0 0 13.481489 6.7881079"
   version="1.1"
   id="svg8"
   inkscape:version="1.0 (4035a4fb49, 2020-05-01)"
   sodipodi:docname="signeD.svg">
  <defs
     id="defs2">
    <rect
       x="138.86186"
       y="73.515099"
       width="51.34388"
       height="29.172659"
       id="rect835" />
  </defs>
  <sodipodi:namedview
     id="base"
     pagecolor="#ffffff"
     bordercolor="#666666"
     borderopacity="1.0"
     inkscape:pageopacity="0.0"
     inkscape:pageshadow="2"
     inkscape:zoom="1.8501056"
     inkscape:cx="194.43774"
     inkscape:cy="83.497873"
     inkscape:document-units="mm"
     inkscape:current-layer="layer1"
     inkscape:document-rotation="0"
     showgrid="false"
     inkscape:snap-center="true"
     showguides="true"
     inkscape:guide-bbox="true"
     inkscape:window-width="1600"
     inkscape:window-height="837"
     inkscape:window-x="-8"
     inkscape:window-y="-8"
     inkscape:window-maximized="1">
    <sodipodi:guide
       position="3.5787298,52.342505"
       orientation="0,-1"
       id="guide2730" />
  </sodipodi:namedview>
  <metadata
     id="metadata5">
    <rdf:RDF>
      <cc:Work
         rdf:about="">
        <dc:format>image/svg+xml</dc:format>
        <dc:type
           rdf:resource="http://purl.org/dc/dcmitype/StillImage" />
        <dc:title></dc:title>
      </cc:Work>
    </rdf:RDF>
  </metadata>
  <g
     inkscape:label="Calque 1"
     inkscape:groupmode="layer"
     id="layer1"
     transform="translate(-104.14449,-60.803787)">
    <path
       style="fill:#000000;stroke:#000000;stroke-width:0.264583"
       d="m 164.68802,302.22873 a 0.15421763,0.15421763 0 0 1 -0.15422,0.15422 0.15421763,0.15421763 0 0 1 -0.15422,-0.15422 0.15421763,0.15421763 0 0 1 0.15422,-0.15422 0.15421763,0.15421763 0 0 1 0.15422,0.15422 z"
       id="path851" />
    <path
       style="fill:#800000;stroke-width:0.128803"
       d="m 114.81488,67.605199 c 0.50871,-0.433406 0.44937,-1.066436 -0.13943,-1.487519 -0.40897,-0.292472 -0.55137,-0.327387 -1.14812,-0.281492 -0.41072,0.03159 -1.30302,0.287289 -2.247,0.643909 -3.14666,1.188764 -4.34187,1.337969 -5.60042,0.699134 -0.38925,-0.197579 -0.61682,-0.271573 -0.50573,-0.164429 0.42896,0.41369 1.33903,0.686968 2.23686,0.671691 0.99179,-0.01688 1.80368,-0.228853 4.04568,-1.056267 1.92352,-0.709879 2.72769,-0.781473 3.21444,-0.286178 0.35465,0.360869 0.38354,0.815379 0.0742,1.168778 -0.25015,0.285859 -0.88975,0.344811 -1.21584,0.112066 -0.1717,-0.122541 -0.17336,-0.113941 -0.0111,0.05762 0.2739,0.289716 0.91021,0.251772 1.29646,-0.07731 z m -5.96411,-0.73517 c 0.39591,-0.109988 1.49083,-0.5856 2.43315,-1.056916 1.93933,-0.96999 2.84654,-1.261552 3.94221,-1.266972 1.41206,-0.007 2.31673,0.524731 2.50042,1.469607 l 0.1056,0.543228 -0.0429,-0.608739 c -0.0498,-0.706867 -0.39708,-1.084027 -1.30801,-1.420529 -1.26391,-0.466896 -2.75963,-0.165937 -5.17636,1.041553 -2.77466,1.386314 -3.68578,1.602921 -4.91371,1.168171 -0.38731,-0.137132 -0.83836,-0.337544 -1.00233,-0.445361 -0.16396,-0.107817 -0.0731,-0.02758 0.20192,0.17831 0.82952,0.621012 1.9597,0.758869 3.25998,0.397648 z m -0.54351,-0.250387 c 1.13798,-0.21567 1.69763,-0.841264 1.58582,-1.772672 -0.0534,-0.444517 -0.15934,-0.640953 -0.45598,-0.845173 -0.21254,-0.146332 -0.50777,-0.266057 -0.65607,-0.266057 -0.29967,0 -0.72211,0.289465 -0.72211,0.494808 0,0.07295 0.10085,0.0174 0.22413,-0.123466 0.2782,-0.317916 0.69402,-0.327865 1.07162,-0.02564 0.41667,0.333504 0.4029,1.349984 -0.0242,1.784552 -0.61491,0.625695 -1.74364,0.800879 -2.68104,0.416111 -0.6842,-0.280844 -1.06687,-0.613686 -1.60647,-1.397314 -0.47828,-0.694563 -0.57736,-0.709671 -0.19301,-0.02943 0.34007,0.601848 1.13897,1.387803 1.60073,1.574766 0.53183,0.215331 1.30428,0.294181 1.85656,0.189512 z m -0.95697,-0.736096 c 0.17927,-0.07216 0.35769,-0.208066 0.39646,-0.302002 0.0532,-0.128873 0.009,-0.121802 -0.17888,0.02881 -0.85592,0.685071 -2.21018,-0.398331 -2.47191,-1.977502 -0.17865,-1.077928 0.36013,-1.740857 1.41487,-1.740857 0.45891,0 0.57074,0.04909 0.69165,0.30364 0.10963,0.230809 0.0908,0.369008 -0.0788,0.576171 -0.1227,0.149892 -0.19071,0.272531 -0.15111,0.272531 0.0396,0 0.17836,-0.129945 0.30837,-0.288766 0.19836,-0.242308 0.20799,-0.343657 0.0598,-0.629956 -0.0971,-0.187654 -0.30481,-0.373767 -0.46154,-0.413584 -0.51267,-0.130236 -1.23594,0.05882 -1.619,0.423193 -0.32094,0.305275 -0.36842,0.457537 -0.3672,1.177231 0.003,1.617055 1.3432,3.019553 2.45734,2.571092 z m 9.16876,-0.823372 c -0.19121,-0.167093 -0.47958,-0.224638 -1.22376,-0.244211 l -0.97361,-0.0256 0.96268,0.0863 c 0.52947,0.04747 1.08016,0.157361 1.22376,0.244211 0.24908,0.150649 0.24958,0.147859 0.0109,-0.0607 z m -3.99701,-0.714432 c 0.67306,-0.282701 1.06179,-0.47703 0.86383,-0.431844 -0.45524,0.103913 -1.56588,0.554472 -1.94362,0.788475 -0.421,0.260803 -0.277,0.213245 1.07979,-0.356631 z m -7.88331,-2.580783 c 0.13512,-0.188445 0.45784,-0.416416 0.71715,-0.506604 0.25932,-0.09019 0.36683,-0.166009 0.23895,-0.16849 -0.28812,-0.0056 -0.94029,0.395403 -1.14777,0.7057 -0.24919,0.37266 -0.0778,0.345305 0.19167,-0.03061 z"
       id="path3134" />
  </g>
</svg>
