<?xml version="1.0" encoding="UTF-8" standalone="no"?>
<svg
   xmlns:dc="http://purl.org/dc/elements/1.1/"
   xmlns:cc="http://creativecommons.org/ns#"
   xmlns:rdf="http://www.w3.org/1999/02/22-rdf-syntax-ns#"
   xmlns:svg="http://www.w3.org/2000/svg"
   xmlns="http://www.w3.org/2000/svg"
   xmlns:sodipodi="http://sodipodi.sourceforge.net/DTD/sodipodi-0.dtd"
   xmlns:inkscape="http://www.inkscape.org/namespaces/inkscape"
   sodipodi:docname="signe.svg"
   inkscape:version="1.0 (4035a4fb49, 2020-05-01)"
   id="svg8"
   version="1.1"
   viewBox="0 0 13.481489 6.7881079"
   height="6.7881079mm"
   width="13.481489mm">
  <defs
     id="defs2">
    <rect
       id="rect835"
       height="29.172659"
       width="51.34388"
       y="73.515099"
       x="138.86186" />
  </defs>
  <sodipodi:namedview
     inkscape:window-maximized="1"
     inkscape:window-y="-8"
     inkscape:window-x="-8"
     inkscape:window-height="837"
     inkscape:window-width="1600"
     inkscape:guide-bbox="true"
     showguides="true"
     inkscape:snap-center="true"
     showgrid="false"
     inkscape:document-rotation="0"
     inkscape:current-layer="layer1"
     inkscape:document-units="mm"
     inkscape:cy="83.497873"
     inkscape:cx="386.50226"
     inkscape:zoom="0.47847559"
     inkscape:pageshadow="2"
     inkscape:pageopacity="0.0"
     borderopacity="1.0"
     bordercolor="#666666"
     pagecolor="#ffffff"
     id="base">
    <sodipodi:guide
       id="guide2730"
       orientation="0,-1"
       position="3.5787298,52.342505" />
  </sodipodi:namedview>
  <metadata
     id="metadata5">
    <rdf:RDF>
      <cc:Work
         rdf:about="">
        <dc:format>image/svg+xml</dc:format>
        <dc:type
           rdf:resource="http://purl.org/dc/dcmitype/StillImage" />
        <dc:title></dc:title>
      </cc:Work>
    </rdf:RDF>
  </metadata>
  <g
     transform="translate(-104.14449,-60.803787)"
     id="layer1"
     inkscape:groupmode="layer"
     inkscape:label="Calque 1">
    <path
       id="path851"
       d="m 164.68802,302.22873 a 0.15421763,0.15421763 0 0 1 -0.15422,0.15422 0.15421763,0.15421763 0 0 1 -0.15422,-0.15422 0.15421763,0.15421763 0 0 1 0.15422,-0.15422 0.15421763,0.15421763 0 0 1 0.15422,0.15422 z"
       style="fill:#000000;stroke:#000000;stroke-width:0.264583" />
    <path
       id="path3134"
       d="m 107.15626,67.319179 c -0.50778,-0.433406 -0.44855,-1.066436 0.13918,-1.487519 0.40822,-0.292472 0.55037,-0.327387 1.14603,-0.281492 0.40997,0.03159 1.30064,0.287289 2.2429,0.643909 3.14093,1.188764 4.33396,1.337969 5.59022,0.699134 0.38854,-0.197579 0.6157,-0.271573 0.50481,-0.164429 -0.42818,0.41369 -1.33659,0.686968 -2.23279,0.671691 -0.98997,-0.01688 -1.80039,-0.228853 -4.0383,-1.056267 -1.92002,-0.709879 -2.72272,-0.781473 -3.20859,-0.286178 -0.35401,0.360869 -0.38284,0.815379 -0.0741,1.168778 0.2497,0.285859 0.88813,0.344811 1.21363,0.112066 0.17139,-0.122541 0.17305,-0.113941 0.0111,0.05762 -0.2734,0.289716 -0.90855,0.251772 -1.2941,-0.07731 z m 5.95325,-0.73517 c -0.39519,-0.109988 -1.48812,-0.5856 -2.42872,-1.056916 -1.9358,-0.96999 -2.84135,-1.261552 -3.93503,-1.266972 -1.40949,-0.007 -2.31251,0.524731 -2.49586,1.469607 l -0.10541,0.543228 0.0428,-0.608739 c 0.0497,-0.706867 0.39635,-1.084027 1.30562,-1.420529 1.26161,-0.466896 2.7546,-0.165937 5.16694,1.041553 2.7696,1.386314 3.67906,1.602921 4.90475,1.168171 0.38661,-0.137132 0.83684,-0.337544 1.00051,-0.445361 0.16366,-0.107817 0.073,-0.02758 -0.20155,0.17831 -0.82801,0.621012 -1.95614,0.758869 -3.25405,0.397648 z m 0.54252,-0.250387 c -1.13591,-0.21567 -1.69454,-0.841264 -1.58293,-1.772672 0.0533,-0.444517 0.15905,-0.640953 0.45514,-0.845173 0.21216,-0.146332 0.50685,-0.266057 0.65488,-0.266057 0.29913,0 0.7208,0.289465 0.7208,0.494808 0,0.07295 -0.10067,0.0174 -0.22372,-0.123466 -0.2777,-0.317916 -0.69276,-0.327865 -1.06967,-0.02564 -0.41591,0.333504 -0.40217,1.349984 0.0241,1.784552 0.61379,0.625695 1.74046,0.800879 2.67615,0.416111 0.68296,-0.280844 1.06493,-0.613686 1.60355,-1.397314 0.47741,-0.694563 0.57631,-0.709671 0.19266,-0.02943 -0.33945,0.601848 -1.1369,1.387803 -1.59782,1.574766 -0.53086,0.215331 -1.3019,0.294181 -1.85317,0.189512 z m 0.95523,-0.736096 c -0.17895,-0.07216 -0.35704,-0.208066 -0.39574,-0.302002 -0.0531,-0.128873 -0.009,-0.121802 0.17855,0.02881 0.85436,0.685071 2.20616,-0.398331 2.46741,-1.977502 0.17833,-1.077928 -0.35948,-1.740857 -1.41229,-1.740857 -0.45808,0 -0.5697,0.04909 -0.69039,0.30364 -0.10944,0.230809 -0.0906,0.369008 0.0787,0.576171 0.12248,0.149892 0.19037,0.272531 0.15084,0.272531 -0.0395,0 -0.17803,-0.129945 -0.30781,-0.288766 -0.198,-0.242308 -0.20761,-0.343657 -0.0597,-0.629956 0.0969,-0.187654 0.30425,-0.373767 0.4607,-0.413584 0.51174,-0.130236 1.23369,0.05882 1.61605,0.423193 0.32035,0.305275 0.36775,0.457537 0.36653,1.177231 -0.003,1.617055 -1.34075,3.019553 -2.45286,2.571092 z m -9.15206,-0.823372 c 0.19086,-0.167093 0.4787,-0.224638 1.22153,-0.244211 l 0.97183,-0.0256 -0.96092,0.0863 c -0.52851,0.04747 -1.0782,0.157361 -1.22153,0.244211 -0.24863,0.150649 -0.24913,0.147859 -0.0109,-0.0607 z m 3.98973,-0.714432 c -0.67184,-0.282701 -1.05986,-0.47703 -0.86226,-0.431844 0.45441,0.103913 1.56303,0.554472 1.94008,0.788475 0.42023,0.260803 0.27649,0.213245 -1.07782,-0.356631 z m 7.86895,-2.580783 c -0.13488,-0.188445 -0.45701,-0.416416 -0.71585,-0.506604 -0.25884,-0.09019 -0.36616,-0.166009 -0.23851,-0.16849 0.28759,-0.0056 0.93858,0.395403 1.14568,0.7057 0.24873,0.37266 0.0777,0.345305 -0.19132,-0.03061 z"
       style="fill:#800000;stroke-width:0.128686" />
  </g>
</svg>
